<?xml version="1.0" encoding="UTF-8" standalone="no"?>
<!-- Created with Inkscape (http://www.inkscape.org/) -->

<svg
   width="200mm"
   height="75mm"
   viewBox="0 0 200 75"
   version="1.1"
   id="svg12"
   inkscape:version="1.2.1 (9c6d41e410, 2022-07-14)"
   sodipodi:docname="logo-mirow.svg"
   xmlns:inkscape="http://www.inkscape.org/namespaces/inkscape"
   xmlns:sodipodi="http://sodipodi.sourceforge.net/DTD/sodipodi-0.dtd"
   xmlns="http://www.w3.org/2000/svg"
   xmlns:svg="http://www.w3.org/2000/svg">
  <sodipodi:namedview
     id="namedview14"
     pagecolor="#ffffff"
     bordercolor="#eeeeee"
     borderopacity="1"
     inkscape:showpageshadow="0"
     inkscape:pageopacity="0"
     inkscape:pagecheckerboard="0"
     inkscape:deskcolor="#666666"
     inkscape:document-units="mm"
     showgrid="false"
     showguides="true"
     inkscape:zoom="1.4651324"
     inkscape:cx="991.37798"
     inkscape:cy="217.04523"
     inkscape:window-width="3840"
     inkscape:window-height="2050"
     inkscape:window-x="-12"
     inkscape:window-y="-12"
     inkscape:window-maximized="1"
     inkscape:current-layer="layer1">
    <sodipodi:guide
       position="269.05128,12.30221"
       orientation="1,0"
       id="guide2508"
       inkscape:locked="false" />
  </sodipodi:namedview>
  <defs
     id="defs9" />
  <g
     inkscape:label="Ebene 1"
     inkscape:groupmode="layer"
     id="layer1">
    <g
       id="g313">
      <g
         aria-label="mirow"
         id="text120"
         style="font-size:74.7826px;line-height:1.25;fill:#ffffff;stroke-width:0.876357">
        <path
           d="M 5.4508068,55.876881 V 35.172909 q 0,-7.302989 3.8340688,-11.538722 3.8340694,-4.235733 10.3337284,-4.235733 3.32286,0 6.13451,1.424083 2.811651,1.387567 4.856488,4.089673 2.117866,-2.73862 4.893002,-4.126188 2.775135,-1.387568 6.097995,-1.387568 6.42663,0 10.260699,4.272248 3.870583,4.235733 3.870583,11.502207 V 55.876881 H 49.378282 V 33.967916 q 0,-3.761039 -2.154382,-6.061481 -2.154382,-2.300441 -5.623301,-2.300441 -3.468919,0 -5.623301,2.300441 -2.154382,2.300442 -2.154382,6.061481 V 55.876881 H 27.469317 V 33.967916 q 0,-3.761039 -2.190897,-6.061481 -2.190896,-2.300441 -5.659816,-2.300441 -3.505434,0 -5.659816,2.300441 -2.117866,2.300442 -2.117866,6.061481 v 21.908965 z"
           style="font-family:'Bauhaus Md BT';-inkscape-font-specification:'Bauhaus Md BT'"
           id="path295" />
        <path
           d="M 64.093803,55.876881 V 20.055723 h 6.42663 V 55.876881 Z M 63.400019,9.8680542 q 0,-1.6066574 1.131963,-2.7386206 1.131963,-1.1319632 2.775136,-1.1319632 1.643172,0 2.73862,1.1319632 1.131964,1.0954483 1.131964,2.7386206 0,1.6796878 -1.131964,2.8481658 -1.095448,1.131963 -2.73862,1.131963 -1.606658,0 -2.775136,-1.168478 -1.131963,-1.168478 -1.131963,-2.8116508 z"
           style="font-family:'Bauhaus Md BT';-inkscape-font-specification:'Bauhaus Md BT'"
           id="path297" />
        <path
           d="M 79.284022,55.876881 V 20.055723 h 5.91542 v 5.294666 q 1.643172,-3.140285 4.527853,-4.527852 2.88468,-1.424083 7.777682,-1.424083 h 1.679688 v 6.20754 h -0.985904 q -6.609204,0 -9.566914,3.140285 -2.921196,3.140285 -2.921196,10.224184 v 16.906418 z"
           style="font-family:'Bauhaus Md BT';-inkscape-font-specification:'Bauhaus Md BT'"
           id="path299" />
        <path
           d="m 108.09431,37.838499 q 0,5.221637 3.32286,8.873131 3.35937,3.61498 8.10631,3.61498 4.74695,0 8.06981,-3.61498 3.35937,-3.651494 3.35937,-8.873131 0,-5.185121 -3.32286,-8.8001 -3.32286,-3.61498 -8.10632,-3.61498 -4.74694,0 -8.10631,3.61498 -3.32286,3.614979 -3.32286,8.8001 z m -6.68224,0.07303 q 0,-3.724524 1.38757,-7.083898 1.38757,-3.359375 4.01664,-6.061481 2.59257,-2.629075 5.80588,-3.980128 3.24983,-1.387568 6.90132,-1.387568 3.6515,0 6.93784,1.387568 3.28635,1.351053 5.84239,3.980128 2.59256,2.629076 3.94362,6.024966 1.38757,3.395889 1.38757,7.120413 0,3.797554 -1.38757,7.229959 -1.35106,3.395889 -3.94362,6.024965 -2.55604,2.629076 -5.84239,4.016644 -3.28634,1.351053 -6.93784,1.351053 -3.65149,0 -6.90132,-1.351053 -3.21331,-1.387568 -5.80588,-4.016644 -2.62907,-2.665591 -4.01664,-6.06148 -1.38757,-3.39589 -1.38757,-7.193444 z"
           style="font-family:'Bauhaus Md BT';-inkscape-font-specification:'Bauhaus Md BT'"
           id="path301" />
        <path
           d="m 194.01397,20.055723 v 20.703972 q 0,7.302988 -3.83407,11.538721 -3.83407,4.235734 -10.29721,4.235734 -3.35938,0 -6.17103,-1.387568 -2.81165,-1.424083 -4.81997,-4.126189 -2.15438,2.738621 -4.92952,4.126189 -2.77513,1.387568 -6.06148,1.387568 -6.46314,0 -10.33373,-4.235734 -3.83406,-4.272248 -3.83406,-11.538721 V 20.055723 h 6.39011 v 21.835935 q 0,3.797554 2.11787,6.13451 2.15438,2.300442 5.65981,2.300442 3.46892,0 5.65982,-2.336957 2.1909,-2.336956 2.1909,-6.097995 V 20.055723 h 6.3536 v 21.835935 q 0,3.797554 2.11786,6.13451 2.15438,2.300442 5.65982,2.300442 3.4324,0 5.58678,-2.336957 2.1909,-2.336956 2.1909,-6.097995 V 20.055723 Z"
           style="font-family:'Bauhaus Md BT';-inkscape-font-specification:'Bauhaus Md BT'"
           id="path303" />
      </g>
      <rect
         style="fill:#00b1f0;fill-opacity:1;stroke-width:207.016;stroke-linecap:square;paint-order:stroke markers fill"
         id="rect207-9"
         width="188.54193"
         height="6.3958955"
         x="5.468174"
         y="62.242477" />
    </g>
  </g>
</svg>
